<svg width="48" height="48" viewBox="0 0 48 48" fill="none" xmlns="http://www.w3.org/2000/svg">
<rect width="48" height="48" rx="12" fill="#58ACC4"/>
<g filter="url(#filter0_d_9827_120953)">
<path d="M16.3516 11.5076V35.4946H11V11.5076H16.3516Z" fill="#000002"/>
<path d="M41 19.9054H35.5866C35.4877 19.2417 35.2858 18.6522 34.9809 18.1368C34.6761 17.6137 34.2847 17.1686 33.8068 16.8016C33.3289 16.4346 32.7768 16.1535 32.1506 15.9583C31.5327 15.7631 30.8611 15.6655 30.136 15.6655C28.8259 15.6655 27.6847 15.974 26.7125 16.5908C25.7402 17.1999 24.9863 18.09 24.4507 19.2612C23.9151 20.4247 23.6473 21.838 23.6473 23.5011C23.6473 25.2111 23.9151 26.6478 24.4507 27.8113C24.9945 28.9747 25.7525 29.8531 26.7248 30.4466C27.6971 31.04 28.8218 31.3367 30.099 31.3367C30.8158 31.3367 31.4791 31.2469 32.0888 31.0673C32.7068 30.8877 33.2547 30.6261 33.7326 30.2826C34.2105 29.9312 34.606 29.5057 34.9191 29.0059C35.2405 28.5062 35.463 27.9362 35.5866 27.2959L41 27.3194C40.8599 28.4203 40.5097 29.4822 39.9494 30.5051C39.3974 31.5202 38.6517 32.4299 37.7124 33.2341C36.7813 34.0305 35.669 34.663 34.3753 35.1315C33.0899 35.5922 31.6356 35.8225 30.0124 35.8225C27.7548 35.8225 25.7361 35.3384 23.9563 34.3702C22.1848 33.402 20.784 32.0004 19.7541 30.1655C18.7324 28.3305 18.2215 26.1091 18.2215 23.5011C18.2215 20.8854 18.7406 18.66 19.7788 16.8251C20.817 14.9901 22.226 13.5924 24.0057 12.632C25.7855 11.6638 27.7877 11.1797 30.0124 11.1797C31.4791 11.1797 32.8386 11.3749 34.0911 11.7653C35.3517 12.1557 36.4682 12.7257 37.4405 13.4753C38.4128 14.2171 39.2038 15.1268 39.8135 16.2043C40.4315 17.2818 40.827 18.5155 41 19.9054Z" fill="#000002"/>
</g>
<defs>
<filter id="filter0_d_9827_120953" x="8.85714" y="11.1797" width="32.1429" height="26.7874" filterUnits="userSpaceOnUse" color-interpolation-filters="sRGB">
<feFlood flood-opacity="0" result="BackgroundImageFix"/>
<feColorMatrix in="SourceAlpha" type="matrix" values="0 0 0 0 0 0 0 0 0 0 0 0 0 0 0 0 0 0 127 0" result="hardAlpha"/>
<feOffset dx="-2.14286" dy="2.14286"/>
<feComposite in2="hardAlpha" operator="out"/>
<feColorMatrix type="matrix" values="0 0 0 0 0.996078 0 0 0 0 1 0 0 0 0 0.00392157 0 0 0 1 0"/>
<feBlend mode="normal" in2="BackgroundImageFix" result="effect1_dropShadow_9827_120953"/>
<feBlend mode="normal" in="SourceGraphic" in2="effect1_dropShadow_9827_120953" result="shape"/>
</filter>
</defs>
</svg>
