<svg width="48" height="48" viewBox="0 0 48 48" fill="none" xmlns="http://www.w3.org/2000/svg">
<rect width="48" height="48" rx="12" fill="#FEFF01"/>
<path d="M15.3516 12.0057V35.9926H10V12.0057H15.3516Z" fill="#080808"/>
<path d="M40 20.4035H34.5866C34.4877 19.7398 34.2858 19.1502 33.9809 18.6349C33.6761 18.1117 33.2847 17.6667 32.8068 17.2997C32.3289 16.9327 31.7768 16.6516 31.1506 16.4564C30.5327 16.2612 29.8611 16.1636 29.136 16.1636C27.8259 16.1636 26.6847 16.472 25.7125 17.0889C24.7402 17.6979 23.9863 18.588 23.4507 19.7593C22.9151 20.9227 22.6473 22.336 22.6473 23.9992C22.6473 25.7092 22.9151 27.1459 23.4507 28.3093C23.9945 29.4728 24.7525 30.3512 25.7248 30.9446C26.6971 31.538 27.8218 31.8347 29.099 31.8347C29.8158 31.8347 30.4791 31.745 31.0888 31.5654C31.7068 31.3858 32.2547 31.1242 32.7326 30.7806C33.2105 30.4293 33.606 30.0037 33.9191 29.504C34.2405 29.0043 34.463 28.4343 34.5866 27.794L40 27.8174C39.8599 28.9184 39.5097 29.9803 38.9494 31.0032C38.3974 32.0182 37.6517 32.9279 36.7124 33.7322C35.7813 34.5286 34.669 35.1611 33.3753 35.6296C32.0899 36.0902 30.6356 36.3206 29.0124 36.3206C26.7548 36.3206 24.7361 35.8365 22.9563 34.8683C21.1848 33.9 19.784 32.4984 18.7541 30.6635C17.7324 28.8286 17.2215 26.6071 17.2215 23.9992C17.2215 21.3834 17.7406 19.158 18.7788 17.3231C19.817 15.4882 21.226 14.0905 23.0057 13.1301C24.7855 12.1618 26.7877 11.6777 29.0124 11.6777C30.4791 11.6777 31.8386 11.8729 33.0911 12.2634C34.3517 12.6538 35.4682 13.2238 36.4405 13.9734C37.4128 14.7151 38.2038 15.6248 38.8135 16.7023C39.4315 17.7799 39.827 19.0136 40 20.4035Z" fill="#080808"/>
</svg>
