<svg width="48" height="48" viewBox="0 0 48 48" fill="none" xmlns="http://www.w3.org/2000/svg">
<rect width="48" height="48" rx="12" fill="#FEFF01"/>
<path d="M15.6016 12.0076V35.9946H10.25V12.0076H15.6016Z" fill="#080808"/>
<path d="M40.25 20.4054H34.8366C34.7377 19.7417 34.5358 19.1522 34.2309 18.6368C33.9261 18.1137 33.5347 17.6686 33.0568 17.3016C32.5789 16.9346 32.0268 16.6535 31.4006 16.4583C30.7827 16.2631 30.1111 16.1655 29.386 16.1655C28.0759 16.1655 26.9347 16.474 25.9625 17.0908C24.9902 17.6999 24.2363 18.59 23.7007 19.7612C23.1651 20.9247 22.8973 22.338 22.8973 24.0011C22.8973 25.7111 23.1651 27.1478 23.7007 28.3113C24.2445 29.4747 25.0025 30.3531 25.9748 30.9466C26.9471 31.54 28.0718 31.8367 29.349 31.8367C30.0658 31.8367 30.7291 31.7469 31.3388 31.5673C31.9568 31.3877 32.5047 31.1261 32.9826 30.7826C33.4605 30.4312 33.856 30.0057 34.1691 29.5059C34.4905 29.0062 34.713 28.4362 34.8366 27.7959L40.25 27.8194C40.1099 28.9203 39.7597 29.9822 39.1994 31.0051C38.6474 32.0202 37.9017 32.9299 36.9624 33.7341C36.0313 34.5305 34.919 35.163 33.6253 35.6315C32.3399 36.0922 30.8856 36.3225 29.2624 36.3225C27.0048 36.3225 24.9861 35.8384 23.2063 34.8702C21.4348 33.902 20.034 32.5004 19.0041 30.6655C17.9824 28.8305 17.4715 26.6091 17.4715 24.0011C17.4715 21.3854 17.9906 19.16 19.0288 17.3251C20.067 15.4901 21.476 14.0924 23.2557 13.132C25.0355 12.1638 27.0377 11.6797 29.2624 11.6797C30.7291 11.6797 32.0886 11.8749 33.3411 12.2653C34.6017 12.6557 35.7182 13.2257 36.6905 13.9753C37.6628 14.7171 38.4538 15.6268 39.0635 16.7043C39.6815 17.7818 40.077 19.0155 40.25 20.4054Z" fill="#080808"/>
</svg>
