<svg width="48" height="48" viewBox="0 0 48 48" fill="none" xmlns="http://www.w3.org/2000/svg">
<rect width="48" height="48" rx="12" fill="url(#paint0_linear_9827_120953)"/>
<path d="M14.9949 12.8061V35.1939H10V12.8061H14.9949Z" fill="white"/>
<path d="M38 20.644H32.9475C32.8552 20.0246 32.6668 19.4743 32.3822 18.9933C32.0977 18.5051 31.7324 18.0897 31.2863 17.7471C30.8403 17.4046 30.325 17.1423 29.7406 16.9601C29.1638 16.7779 28.537 16.6868 27.8603 16.6868C26.6375 16.6868 25.5724 16.9747 24.665 17.5504C23.7575 18.1188 23.0538 18.9496 22.554 20.0428C22.0541 21.1286 21.8042 22.4477 21.8042 24C21.8042 25.596 22.0541 26.9369 22.554 28.0228C23.0615 29.1087 23.769 29.9285 24.6765 30.4824C25.584 31.0363 26.6337 31.3132 27.8257 31.3132C28.4947 31.3132 29.1138 31.2294 29.6829 31.0618C30.2597 30.8942 30.7711 30.65 31.2171 30.3294C31.6632 30.0014 32.0323 29.6042 32.3245 29.1378C32.6245 28.6714 32.8321 28.1394 32.9475 27.5418L38 27.5637C37.8693 28.5913 37.5424 29.5824 37.0195 30.5371C36.5042 31.4845 35.8083 32.3335 34.9316 33.0841C34.0625 33.8275 33.0244 34.4178 31.817 34.855C30.6173 35.285 29.2599 35.5 27.7449 35.5C25.6378 35.5 23.7537 35.0482 22.0925 34.1445C20.4391 33.2408 19.1318 31.9327 18.1705 30.2201C17.2169 28.5074 16.7401 26.4341 16.7401 24C16.7401 21.5586 17.2246 19.4816 18.1935 17.769C19.1625 16.0564 20.4776 14.7519 22.1387 13.8555C23.7998 12.9518 25.6686 12.5 27.7449 12.5C29.1138 12.5 30.3827 12.6822 31.5517 13.0466C32.7283 13.411 33.7703 13.943 34.6778 14.6426C35.5852 15.3349 36.3235 16.1839 36.8926 17.1896C37.4694 18.1953 37.8385 19.3468 38 20.644Z" fill="white"/>
<defs>
<linearGradient id="paint0_linear_9827_120953" x1="0" y1="0" x2="48" y2="48" gradientUnits="userSpaceOnUse">
<stop stop-color="#4C8FFE"/>
<stop offset="1" stop-color="#E36F7A"/>
</linearGradient>
</defs>
</svg>
