<svg width="48" height="48" viewBox="0 0 48 48" fill="none" xmlns="http://www.w3.org/2000/svg">
<rect width="48" height="48" rx="12" fill="#58ACC4"/>
<g filter="url(#filter0_d_9827_120953)">
<path d="M16.9949 12.3061V34.6939H12V12.3061H16.9949Z" fill="#000002"/>
<path d="M40 20.144H34.9475C34.8552 19.5246 34.6668 18.9743 34.3822 18.4933C34.0977 18.0051 33.7324 17.5897 33.2863 17.2471C32.8403 16.9046 32.3251 16.6423 31.7406 16.4601C31.1638 16.2779 30.537 16.1868 29.8603 16.1868C28.6375 16.1868 27.5724 16.4747 26.665 17.0504C25.7575 17.6188 25.0538 18.4496 24.554 19.5428C24.0541 20.6286 23.8042 21.9477 23.8042 23.5C23.8042 25.096 24.0541 26.4369 24.554 27.5228C25.0615 28.6087 25.769 29.4285 26.6765 29.9824C27.584 30.5363 28.6337 30.8132 29.8257 30.8132C30.4948 30.8132 31.1138 30.7294 31.6829 30.5618C32.2597 30.3942 32.7711 30.15 33.2171 29.8294C33.6632 29.5014 34.0323 29.1042 34.3245 28.6378C34.6245 28.1714 34.8321 27.6394 34.9475 27.0418L40 27.0637C39.8693 28.0913 39.5424 29.0824 39.0195 30.0371C38.5042 30.9845 37.8083 31.8335 36.9316 32.5841C36.0626 33.3275 35.0244 33.9178 33.817 34.355C32.6173 34.785 31.2599 35 29.7449 35C27.6378 35 25.7537 34.5482 24.0925 33.6445C22.4391 32.7408 21.1318 31.4327 20.1705 29.7201C19.2169 28.0074 18.7401 25.9341 18.7401 23.5C18.7401 21.0586 19.2246 18.9816 20.1936 17.269C21.1625 15.5564 22.4776 14.2519 24.1387 13.3555C25.7998 12.4518 27.6686 12 29.7449 12C31.1138 12 32.3827 12.1822 33.5517 12.5466C34.7283 12.911 35.7703 13.443 36.6778 14.1426C37.5852 14.8349 38.3235 15.6839 38.8926 16.6896C39.4694 17.6953 39.8385 18.8468 40 20.144Z" fill="#000002"/>
</g>
<defs>
<filter id="filter0_d_9827_120953" x="10" y="12" width="30" height="25" filterUnits="userSpaceOnUse" color-interpolation-filters="sRGB">
<feFlood flood-opacity="0" result="BackgroundImageFix"/>
<feColorMatrix in="SourceAlpha" type="matrix" values="0 0 0 0 0 0 0 0 0 0 0 0 0 0 0 0 0 0 127 0" result="hardAlpha"/>
<feOffset dx="-2" dy="2"/>
<feComposite in2="hardAlpha" operator="out"/>
<feColorMatrix type="matrix" values="0 0 0 0 0.996078 0 0 0 0 1 0 0 0 0 0.00392157 0 0 0 1 0"/>
<feBlend mode="normal" in2="BackgroundImageFix" result="effect1_dropShadow_9827_120953"/>
<feBlend mode="normal" in="SourceGraphic" in2="effect1_dropShadow_9827_120953" result="shape"/>
</filter>
</defs>
</svg>
